# xmcd CD database file
#
# Track frame offsets:
#	187
#	11892
#	30720
#	44835
#	59775
#	74892
#	86637
#	99052
#	117405
#	134330
#
# Disc length: 1960 seconds
#
# Revision: 1
# Processed by: cddbd v1.5.1PL2 Copyright (c) Steve Scherf et al.
# Submitted via: CDex 1.51
#
DISCID=9807a60a
DTITLE=Glen Campbell - Still Within The Sound Of My Voice
DYEAR=1987
DGENRE=Folk
TTITLE0=I'm A One Woman Man
TTITLE1=Still Within The Sound Of My Voice
TTITLE2=The Hand That Rocks The Cradle
TTITLE3=For Sure, For Certain, Forever, For Always
TTITLE4=I Have You
TTITLE5=You Are
TTITLE6=Arkansas
TTITLE7=In My Life
TTITLE8=Leavin's Not The Only Way To Go
TTITLE9=I Remember You
EXTD=YEAR: 1987
EXTT0=
EXTT1=
EXTT2=
EXTT3=
EXTT4=
EXTT5=
EXTT6=
EXTT7=
EXTT8=
EXTT9=
PLAYORDER=
